<svg xmlns="http://www.w3.org/2000/svg" viewBox="0 0 100 100">
  <defs>
    <radialGradient id="bgGlow" cx="50%" cy="50%" r="50%">
      <stop offset="0%" stop-color="#f59e0b" stop-opacity="0.3"/>
      <stop offset="100%" stop-color="#050811" stop-opacity="0"/>
    </radialGradient>
  </defs>
  <circle cx="50" cy="50" r="48" fill="#070c18" stroke="#f59e0b" stroke-width="2"/>
  <circle cx="50" cy="50" r="45" fill="url(#bgGlow)"/>
  
  <!-- Crossbones -->
  <path d="M 22 24 L 78 76 M 22 76 L 78 24" stroke="#e2e8f0" stroke-width="6" stroke-linecap="round"/>
  <circle cx="20" cy="22" r="3.5" fill="#e2e8f0"/>
  <circle cx="24" cy="19" r="3" fill="#e2e8f0"/>
  <circle cx="78" cy="78" r="3.5" fill="#e2e8f0"/>
  <circle cx="81" cy="74" r="3" fill="#e2e8f0"/>
  <circle cx="20" cy="78" r="3.5" fill="#e2e8f0"/>
  <circle cx="24" cy="81" r="3" fill="#e2e8f0"/>
  <circle cx="78" cy="22" r="3.5" fill="#e2e8f0"/>
  <circle cx="81" cy="26" r="3" fill="#e2e8f0"/>

  <!-- Skull -->
  <ellipse cx="50" cy="53" rx="18" ry="17" fill="#f8fafc"/>
  <path d="M 40 64 L 40 73 C 40 75, 60 75, 60 73 L 60 64 Z" fill="#f8fafc"/>
  <!-- Teeth slits -->
  <line x1="45" y1="65" x2="45" y2="72" stroke="#070c18" stroke-width="1.8"/>
  <line x1="50" y1="65" x2="50" y2="72" stroke="#070c18" stroke-width="1.8"/>
  <line x1="55" y1="65" x2="55" y2="72" stroke="#070c18" stroke-width="1.8"/>
  <!-- Eyes -->
  <circle cx="43" cy="53" r="5" fill="#070c18"/>
  <circle cx="57" cy="53" r="5" fill="#070c18"/>
  <!-- Nose -->
  <polygon points="50,57 48,61 52,61" fill="#070c18"/>

  <!-- Straw Hat -->
  <!-- Brim -->
  <ellipse cx="50" cy="42" rx="32" ry="6.5" fill="#eab308" stroke="#b45309" stroke-width="1.2"/>
  <!-- Crown -->
  <path d="M 33 42 C 33 26, 67 26, 67 42 Z" fill="#eab308" stroke="#b45309" stroke-width="1.2"/>
  <!-- Red Ribbon -->
  <path d="M 34 38 C 42 36, 58 36, 66 38 L 66.5 42 C 58 40.5, 42 40.5, 33.5 42 Z" fill="#dc2626"/>
</svg>
